<?xml version="1.0" encoding="UTF-8"?>
<!DOCTYPE svg PUBLIC "-//W3C//DTD SVG 1.1//EN" "http://www.w3.org/Graphics/SVG/1.1/DTD/svg11.dtd">
<svg xmlns="http://www.w3.org/2000/svg" version="1.1" width="300px" height="263px" style="shape-rendering:geometricPrecision; text-rendering:geometricPrecision; image-rendering:optimizeQuality; fill-rule:evenodd; clip-rule:evenodd" xmlns:xlink="http://www.w3.org/1999/xlink">
<g><path style="opacity:0.985" fill="#78e6dc" d="M 247.5,-0.5 C 249.5,-0.5 251.5,-0.5 253.5,-0.5C 268.57,4.10187 283.903,8.10187 299.5,11.5C 299.5,91.1667 299.5,170.833 299.5,250.5C 284.228,253.796 268.894,257.796 253.5,262.5C 251.5,262.5 249.5,262.5 247.5,262.5C 247.5,174.833 247.5,87.1667 247.5,-0.5 Z"/></g>
<g><path style="opacity:0.983" fill="#2e5ab5" d="M -0.5,12.5 C 16.7496,17.1457 34.0829,21.4791 51.5,25.5C 51.5,95.8333 51.5,166.167 51.5,236.5C 34.1674,240.833 16.8341,245.166 -0.5,249.5C -0.5,170.5 -0.5,91.5 -0.5,12.5 Z"/></g>
<g><path style="opacity:0.961" fill="#00c8d3" d="M 216.5,82.5 C 218.495,128.821 219.162,175.488 218.5,222.5C 201.026,218.798 183.693,214.465 166.5,209.5C 165.5,171.506 165.167,133.506 165.5,95.5C 182.719,91.6124 199.719,87.2791 216.5,82.5 Z"/></g>
<g><path style="opacity:0.96" fill="#398cfe" d="M 80.5,116.5 C 98.1248,120.99 115.791,125.323 133.5,129.5C 133.5,167.5 133.5,205.5 133.5,243.5C 115.869,247.991 98.2022,252.324 80.5,256.5C 80.5,209.833 80.5,163.167 80.5,116.5 Z"/></g>
</svg>
