<?xml version="1.0" encoding="UTF-8"?>
<!DOCTYPE svg PUBLIC "-//W3C//DTD SVG 1.1//EN" "http://www.w3.org/Graphics/SVG/1.1/DTD/svg11.dtd">
<svg xmlns="http://www.w3.org/2000/svg" version="1.1" width="126px" height="126px" style="shape-rendering:geometricPrecision; text-rendering:geometricPrecision; image-rendering:optimizeQuality; fill-rule:evenodd; clip-rule:evenodd" xmlns:xlink="http://www.w3.org/1999/xlink">
<g><path style="opacity:1" fill="#f7f7f7" d="M -0.5,-0.5 C 41.5,-0.5 83.5,-0.5 125.5,-0.5C 125.5,41.5 125.5,83.5 125.5,125.5C 83.5,125.5 41.5,125.5 -0.5,125.5C -0.5,83.5 -0.5,41.5 -0.5,-0.5 Z"/></g>
<g><path style="opacity:1" fill="#111111" d="M 38.5,2.5 C 57.5289,2.14243 76.5289,2.64243 95.5,4C 105.877,4.92811 113.71,9.76145 119,18.5C 121.958,26.9116 123.624,35.5783 124,44.5C 124.784,59.5259 124.45,74.5259 123,89.5C 122.777,110.388 112.277,121.555 91.5,123C 76.1861,124.343 60.8528,124.677 45.5,124C 33.5481,124.263 22.5481,121.263 12.5,115C 6.1399,105.915 2.97323,95.7482 3,84.5C 2.33333,69.5 2.33333,54.5 3,39.5C 3.23525,15.7683 15.0686,3.43499 38.5,2.5 Z"/></g>
<g><path style="opacity:1" fill="#fbfbfb" d="M 44.5,6.5 C 62.2463,5.93164 79.9129,6.76497 97.5,9C 104.355,10.0047 109.855,13.1713 114,18.5C 115.927,21.9481 117.261,25.6148 118,29.5C 121.598,53.2285 121.264,76.8951 117,100.5C 114.059,111.402 106.893,117.235 95.5,118C 71.0246,121.764 46.6913,121.097 22.5,116C 18.7587,114.262 15.592,111.762 13,108.5C 9.74899,100.829 7.74899,92.8293 7,84.5C 5.97611,65.4265 6.64278,46.4265 9,27.5C 11.1756,17.3244 17.3423,11.1577 27.5,9C 33.3168,8.19138 38.9834,7.35805 44.5,6.5 Z"/></g>
<g><path style="opacity:1" fill="#262626" d="M 36.5,12.5 C 38.1439,12.2865 39.6439,12.6198 41,13.5C 44.3433,22.2086 46.6767,31.2086 48,40.5C 49.1365,44.2432 50.4698,47.9099 52,51.5C 53.5874,52.727 54.9207,52.3937 56,50.5C 57.7869,46.4234 59.9536,42.59 62.5,39C 64.5,38.3333 66.5,38.3333 68.5,39C 72.437,46.8016 75.6037,54.9682 78,63.5C 79.214,65.0488 80.714,66.2155 82.5,67C 87.9459,67.1011 93.2793,67.7677 98.5,69C 100.041,70.5793 101.208,72.4127 102,74.5C 103.667,82.5051 105.334,90.5051 107,98.5C 107.667,99.8333 108.333,99.8333 109,98.5C 108.71,94.9106 110.21,93.4106 113.5,94C 114.187,97.5164 113.187,100.683 110.5,103.5C 107.755,104.975 105.588,104.309 104,101.5C 101.666,92.1551 99.3323,82.8217 97,73.5C 90.7438,72.9291 84.5772,71.7624 78.5,70C 75.8941,68.0616 74.0608,65.5616 73,62.5C 71.3777,55.462 68.8777,48.7953 65.5,42.5C 62.9584,47.26 59.9584,51.76 56.5,56C 54.5,56.6667 52.5,56.6667 50.5,56C 48.6227,53.7487 47.1227,51.2487 46,48.5C 43.841,39.0422 41.5077,29.7088 39,20.5C 34.5982,43.3504 30.5982,66.3504 27,89.5C 25.9506,94.6507 24.1172,99.484 21.5,104C 18.6917,104.92 16.5251,104.087 15,101.5C 13.8644,98.9036 13.031,96.237 12.5,93.5C 13.8734,93.3433 15.2068,93.51 16.5,94C 17.3295,95.8161 18.1628,97.6494 19,99.5C 22.3944,90.4978 24.7277,81.1644 26,71.5C 28.4212,53.7974 31.0879,36.1307 34,18.5C 34.5725,16.3594 35.4058,14.3594 36.5,12.5 Z"/></g>
</svg>
